<svg fill="none" height="22" viewBox="0 0 24 22" width="24" xmlns="http://www.w3.org/2000/svg"><path d="m17 20v-2c0-1.0609-.4214-2.0783-1.1716-2.8284-.7501-.7502-1.7675-1.1716-2.8284-1.1716h-8c-1.06087 0-2.07828.4214-2.82843 1.1716-.75014.7501-1.17157 1.7675-1.17157 2.8284v2m22 0v-2c-.0007-.8863-.2956-1.7472-.8386-2.4477-.543-.7004-1.3033-1.2007-2.1614-1.4223m-4-12c.8604.2203 1.623.7207 2.1676 1.42231s.8402 1.56452.8402 2.45269-.2956 1.75108-.8402 2.45269-1.3072 1.20201-2.1676 1.42231m-3-3.88c0 2.20914-1.7909 4-4 4-2.20914 0-4-1.79086-4-4s1.79086-4 4-4c2.2091 0 4 1.79086 4 4z" stroke="#1e1e1e" stroke-linecap="round" stroke-linejoin="round" stroke-width="2.5"/></svg>